<svg width="81" height="84" viewBox="0 0 81 84" fill="none" xmlns="http://www.w3.org/2000/svg">
<path d="M66.6344 36.7253H15.3727C13.5735 36.7253 12.1099 35.2617 12.1099 33.4623V23.6863C12.1099 21.8869 13.5735 20.4226 15.3727 20.4226H66.6338C68.4324 20.4226 69.8954 21.8869 69.8954 23.6863V33.4629C69.896 35.2617 68.433 36.7253 66.6344 36.7253ZM15.3727 22.9235C14.959 22.9235 14.6096 23.273 14.6096 23.6863V33.4629C14.6096 33.8831 14.9521 34.2251 15.3727 34.2251H66.6338C67.0537 34.2251 67.3956 33.8831 67.3956 33.4629V23.6863C67.3956 23.2724 67.0462 22.9235 66.6338 22.9235H15.3727Z" fill="white"/>
<path d="M59.4853 70.216H22.5186C19.0552 70.216 16.2373 67.3975 16.2373 63.9319V35.4748C16.2373 34.7846 16.7973 34.2244 17.4872 34.2244C18.1771 34.2244 18.7371 34.7846 18.7371 35.4748V63.9319C18.7371 66.0183 20.4338 67.7151 22.5186 67.7151H59.4853C61.5695 67.7151 63.2656 66.0183 63.2656 63.9319V35.4748C63.2656 34.7846 63.8256 34.2244 64.5155 34.2244C65.2055 34.2244 65.7654 34.7846 65.7654 35.4748V63.9319C65.7654 67.3975 62.9482 70.216 59.4853 70.216Z" fill="white"/>
<path d="M41.0029 70.216C40.3129 70.216 39.7529 69.6564 39.7529 68.9656V35.4748C39.7529 34.7846 40.3129 34.2244 41.0029 34.2244C41.6929 34.2244 42.2529 34.7846 42.2529 35.4748V68.965C42.2529 69.6564 41.6936 70.216 41.0029 70.216Z" fill="white"/>
<path d="M25.4028 22.9191C21.4907 20.7983 20.0308 15.8891 22.1487 11.9746C24.2654 8.0619 29.1719 6.60075 33.0859 8.71776C39.0485 11.9489 42.2682 20.9634 42.4019 21.3454L40.044 22.1751C40.014 22.0901 37.0062 13.6864 31.8966 10.9173C29.1937 9.45552 25.8078 10.4646 24.3473 13.165C22.8856 15.8678 23.893 19.2565 26.5946 20.7202L25.4028 22.9191Z" fill="white"/>
<path d="M56.6 22.919L55.4101 20.7195C56.7194 20.0099 57.6736 18.8338 58.0986 17.4077C58.5229 15.9809 58.3661 14.4741 57.6568 13.1655C56.9493 11.8557 55.7744 10.9016 54.3489 10.4771C52.9228 10.0525 51.418 10.2089 50.1093 10.9172C44.9998 13.6857 41.9919 22.0894 41.9619 22.1744L39.604 21.3447C39.7377 20.9627 42.9568 11.9482 48.9194 8.71769C50.8143 7.69107 52.9972 7.46474 55.062 8.07996C57.1287 8.69456 58.8304 10.0782 59.856 11.9745C60.8827 13.8702 61.1096 16.0528 60.4946 18.1204C59.8791 20.1874 58.4961 21.8912 56.6 22.919Z" fill="white"/>
<path d="M64.5155 53.4703H17.4872C16.7973 53.4703 16.2373 52.9103 16.2373 52.2203C16.2373 51.5303 16.7973 50.9703 17.4872 50.9703H64.5155C65.2055 50.9703 65.7654 51.5303 65.7654 52.2203C65.7654 52.9103 65.2061 53.4703 64.5155 53.4703Z" fill="white"/>
</svg>
