<svg width="81" height="84" fill="none" xmlns="http://www.w3.org/2000/svg"><path d="M66.634 36.725H15.373a3.266 3.266 0 0 1-3.263-3.263v-9.776c0-1.8 1.463-3.263 3.263-3.263h51.26a3.266 3.266 0 0 1 3.262 3.263v9.777a3.265 3.265 0 0 1-3.26 3.262ZM15.373 22.923a.773.773 0 0 0-.763.763v9.777c0 .42.342.762.763.762h51.26c.42 0 .763-.342.763-.762v-9.777a.773.773 0 0 0-.762-.762H15.373Z" fill="#fff"/><path d="M59.485 70.216H22.52a6.29 6.29 0 0 1-6.282-6.284V35.475a1.25 1.25 0 0 1 2.5 0v28.457a3.787 3.787 0 0 0 3.782 3.783h36.966a3.786 3.786 0 0 0 3.78-3.783V35.475a1.25 1.25 0 0 1 2.5 0v28.457a6.289 6.289 0 0 1-6.28 6.284Z" fill="#fff"/><path d="M41.003 70.216c-.69 0-1.25-.56-1.25-1.25V35.475a1.25 1.25 0 0 1 2.5 0v33.49a1.25 1.25 0 0 1-1.25 1.251ZM25.403 22.92c-3.912-2.122-5.372-7.03-3.254-10.945 2.116-3.913 7.023-5.374 10.937-3.257 5.962 3.23 9.182 12.245 9.316 12.627l-2.358.83c-.03-.085-3.038-8.489-8.147-11.258a5.576 5.576 0 0 0-7.55 2.248 5.582 5.582 0 0 0 2.248 7.555l-1.192 2.2Z" fill="#fff"/><path d="m56.6 22.919-1.19-2.2a5.543 5.543 0 0 0 2.689-3.311 5.534 5.534 0 0 0-.442-4.243 5.527 5.527 0 0 0-3.308-2.688 5.53 5.53 0 0 0-4.24.44C45 13.686 41.992 22.09 41.962 22.174l-2.358-.83c.134-.381 3.353-9.396 9.315-12.626a8.011 8.011 0 0 1 6.143-.638 8.01 8.01 0 0 1 4.794 3.895 8.02 8.02 0 0 1 .639 6.145A8.029 8.029 0 0 1 56.6 22.92ZM64.516 53.47H17.486a1.25 1.25 0 0 1 0-2.5h47.029a1.25 1.25 0 0 1 0 2.5Z" fill="#fff"/></svg>